<?xml version="1.0" encoding="UTF-8"?>
<!DOCTYPE svg PUBLIC "-//W3C//DTD SVG 1.1//EN" "http://www.w3.org/Graphics/SVG/1.1/DTD/svg11.dtd">
<svg xmlns="http://www.w3.org/2000/svg" version="1.1" width="200px" height="200px" style="shape-rendering:geometricPrecision; text-rendering:geometricPrecision; image-rendering:optimizeQuality; fill-rule:evenodd; clip-rule:evenodd" xmlns:xlink="http://www.w3.org/1999/xlink">
<g><path style="opacity:1" fill="#2d84f9" d="M 79.5,15.5 C 87.859,15.671 91.0256,19.671 89,27.5C 84.3333,32.8333 79.6667,32.8333 75,27.5C 73.3087,22.1311 74.8087,18.1311 79.5,15.5 Z"/></g>
<g><path style="opacity:1" fill="#2d84f9" d="M 114.5,15.5 C 122.696,15.529 125.863,19.529 124,27.5C 116.997,33.5974 111.831,32.2641 108.5,23.5C 109.406,19.9383 111.406,17.2716 114.5,15.5 Z"/></g>
<g><path style="opacity:1" fill="#2983f9" d="M 45.5,38.5 C 56.1471,37.9801 60.6471,42.9801 59,53.5C 54.8288,59.8023 49.3288,61.1356 42.5,57.5C 36.5173,50.0442 37.5173,43.7109 45.5,38.5 Z"/></g>
<g><path style="opacity:1" fill="#2682f9" d="M 78.5,38.5 C 91.1138,38.9409 94.9472,44.9409 90,56.5C 85.0289,60.326 79.8622,60.4926 74.5,57C 69.604,49.4151 70.9373,43.2484 78.5,38.5 Z"/></g>
<g><path style="opacity:1" fill="#2582f9" d="M 113.5,38.5 C 126.114,38.9409 129.947,44.9409 125,56.5C 117.375,61.5596 111.375,60.2263 107,52.5C 105.669,46.1632 107.836,41.4965 113.5,38.5 Z"/></g>
<g><path style="opacity:1" fill="#2983f9" d="M 146.5,38.5 C 159.395,39.038 163.062,45.038 157.5,56.5C 153.95,59.2803 149.95,60.1136 145.5,59C 138.938,54.4012 137.771,48.5679 142,41.5C 143.652,40.6006 145.152,39.6006 146.5,38.5 Z"/></g>
<g><path style="opacity:1" fill="#2882f9" d="M 79.5,69.5 C 93.12,70.7525 97.62,77.7525 93,90.5C 87.2554,97.2279 80.7554,98.0612 73.5,93C 66.4681,82.9615 68.4681,75.1282 79.5,69.5 Z"/></g>
<g><path style="opacity:1" fill="#2d83f9" d="M 115.5,69.5 C 128.426,71.3568 132.592,78.3568 128,90.5C 119.577,98.6945 111.911,98.0279 105,88.5C 103.082,83.4931 103.749,78.8264 107,74.5C 109.398,71.8916 112.231,70.2249 115.5,69.5 Z"/></g>
<g><path style="opacity:1" fill="#2682f9" d="M 45.5,71.5 C 56.4328,70.6952 60.9328,75.6952 59,86.5C 55.8431,91.4916 51.3431,93.3249 45.5,92C 36.2138,85.1689 36.2138,78.3355 45.5,71.5 Z"/></g>
<g><path style="opacity:1" fill="#2782f9" d="M 146.5,71.5 C 156.317,71.1488 160.817,75.8155 160,85.5C 155.733,92.8755 149.899,94.3755 142.5,90C 137.511,82.3056 138.844,76.139 146.5,71.5 Z"/></g>
<g><path style="opacity:1" fill="#2d84f9" d="M 19.5,74.5 C 27.6138,73.1209 31.4472,76.4543 31,84.5C 27.0662,91.1575 22.3996,91.8242 17,86.5C 14.6957,81.8553 15.529,77.8553 19.5,74.5 Z"/></g>
<g><path style="opacity:1" fill="#2d84f9" d="M 171.5,74.5 C 179.614,73.1209 183.447,76.4543 183,84.5C 179.066,91.1575 174.4,91.8242 169,86.5C 166.696,81.8553 167.529,77.8553 171.5,74.5 Z"/></g>
<g><path style="opacity:1" fill="#2481f9" d="M 77.5,104.5 C 92.4013,103.883 97.5679,110.549 93,124.5C 84.5741,132.819 76.9075,132.152 70,122.5C 67.7894,114.583 70.2894,108.583 77.5,104.5 Z"/></g>
<g><path style="opacity:1" fill="#2681f9" d="M 112.5,104.5 C 127.401,103.883 132.568,110.549 128,124.5C 119.53,132.956 111.863,132.29 105,122.5C 102.818,114.532 105.318,108.532 112.5,104.5 Z"/></g>
<g><path style="opacity:1" fill="#2582f9" d="M 45.5,106.5 C 56.0419,105.539 60.5419,110.206 59,120.5C 56.3175,126.257 51.8175,128.424 45.5,127C 36.2138,120.169 36.2138,113.336 45.5,106.5 Z"/></g>
<g><path style="opacity:1" fill="#2582f9" d="M 146.5,106.5 C 156.317,106.149 160.817,110.815 160,120.5C 155.733,127.876 149.899,129.376 142.5,125C 137.478,117.23 138.812,111.063 146.5,106.5 Z"/></g>
<g><path style="opacity:1" fill="#2d84f9" d="M 22.5,108.5 C 32.1015,111.19 33.7682,116.357 27.5,124C 17.9911,125.495 14.4911,121.661 17,112.5C 18.4998,110.531 20.3331,109.198 22.5,108.5 Z"/></g>
<g><path style="opacity:1" fill="#2c84f9" d="M 174.5,108.5 C 184.101,111.19 185.768,116.357 179.5,124C 169.991,125.495 166.491,121.661 169,112.5C 170.5,110.531 172.333,109.198 174.5,108.5 Z"/></g>
<g><path style="opacity:1" fill="#2882f9" d="M 45.5,139.5 C 58.0963,139.096 62.0963,144.763 57.5,156.5C 50.1948,162.528 44.0281,161.528 39,153.5C 37.6894,147.125 39.8561,142.458 45.5,139.5 Z"/></g>
<g><path style="opacity:1" fill="#2782f9" d="M 77.5,139.5 C 88.382,138.01 93.2153,142.677 92,153.5C 89.2399,159.297 84.7399,161.463 78.5,160C 69.5092,153.571 69.1759,146.738 77.5,139.5 Z"/></g>
<g><path style="opacity:1" fill="#2582f9" d="M 112.5,139.5 C 123.458,138.035 128.292,142.702 127,153.5C 124.24,159.297 119.74,161.463 113.5,160C 104.509,153.571 104.176,146.738 112.5,139.5 Z"/></g>
<g><path style="opacity:1" fill="#2882f9" d="M 145.5,139.5 C 156.159,138.327 160.992,142.994 160,153.5C 155.578,161.06 149.745,162.393 142.5,157.5C 137.796,150.436 138.796,144.436 145.5,139.5 Z"/></g>
<g><path style="opacity:1" fill="#2d84f9" d="M 79.5,167.5 C 87.859,167.671 91.0256,171.671 89,179.5C 84.3333,184.833 79.6667,184.833 75,179.5C 73.3087,174.131 74.8087,170.131 79.5,167.5 Z"/></g>
<g><path style="opacity:1" fill="#2d84f9" d="M 114.5,167.5 C 122.696,167.529 125.863,171.529 124,179.5C 116.997,185.597 111.831,184.264 108.5,175.5C 109.406,171.938 111.406,169.272 114.5,167.5 Z"/></g>
</svg>
