<svg width="73" height="32" viewBox="0 0 73 32" fill="none" xmlns="http://www.w3.org/2000/svg">
<path d="M39.187 1.66016H36.2021V30.2218H39.187V1.66016Z" fill="#54565A"/>
<path d="M47.2978 10.2695H44.3237V30.2226H47.2978V10.2695Z" fill="#54565A"/>
<path d="M47.841 4.01949C48.0209 2.91109 47.2682 1.86673 46.1598 1.68684C45.0514 1.50696 44.0071 2.25967 43.8272 3.36807C43.6473 4.47647 44.4 5.52083 45.5084 5.70071C46.6168 5.8806 47.6612 5.12789 47.841 4.01949Z" fill="#54565A"/>
<path d="M68.1919 10.2687H64.0498L55.4521 17.7957L55.4413 1.66016H52.4673V30.2218H55.4413V21.0076L64.2661 30.2218H68.3973L57.8746 19.5477L68.1919 10.2687Z" fill="#54565A"/>
<path d="M72.4968 28.8203V30.237H72.248V29.2637L71.8262 30.237H71.6965L71.2639 29.2637V30.237H71.0151V28.8203H71.3179L71.7614 29.8585L72.1939 28.8203H72.4968Z" fill="#54565A"/>
<path d="M70.777 28.8203V29.0258H70.3444V30.237H70.0957V29.0258H69.6631V28.8203H70.777Z" fill="#54565A"/>
<path d="M15.8869 27.9222C9.34052 27.9222 4.05496 22.5965 4.05496 16.0004C4.05496 13.2154 5.02478 10.6258 6.625 8.62256L4.44289 6.375C2.30927 9.01344 1 12.3359 1 16.0004C1 24.3066 7.64332 31.0004 15.8869 31.0004C19.4267 31.0004 22.7241 29.73 25.2942 27.6291L23.1121 25.4304C21.1239 26.9939 18.6024 27.9222 15.8869 27.9222Z" fill="#54565A"/>
<path d="M27.3308 25.5765L27.4763 25.3811C29.5129 22.7915 30.7252 19.5668 30.7252 16C30.7737 7.69381 24.1304 1 15.8868 1C12.347 1 9.09804 2.27036 6.528 4.32248C5.80063 4.90879 5.12175 5.59283 4.49136 6.32573L4.44287 6.37459L6.62498 8.57329L6.67347 8.52443C7.25537 7.79153 7.93425 7.10749 8.71011 6.52117C10.6983 4.95765 13.2198 4.07818 15.8868 4.07818C22.4332 4.07818 27.7187 9.40391 27.7187 16C27.7187 18.785 26.7974 21.3257 25.1972 23.3778C24.6153 24.1107 23.9849 24.7948 23.2575 25.3811C23.209 25.43 23.1605 25.43 23.1605 25.4788L25.3427 27.6775L27.9127 30.2671H32.0345L27.3308 25.5765Z" fill="#009845"/>
</svg>
